<svg width="16" height="9" viewBox="0 0 16 9" fill="none" xmlns="http://www.w3.org/2000/svg">
<path d="M8.48701 8.48699C8.23711 8.48747 7.99492 8.40044 7.8025 8.24099L1.38516 2.8932C1.16674 2.71166 1.02938 2.45078 1.00331 2.16796C0.97723 1.88514 1.06457 1.60355 1.24612 1.38513C1.42766 1.16671 1.68854 1.02935 1.97136 1.00327C2.25418 0.977199 2.53577 1.06454 2.75419 1.24609L8.48701 6.0377L14.2198 1.41722C14.3292 1.32837 14.4551 1.26203 14.5903 1.22199C14.7254 1.18195 14.8671 1.16902 15.0072 1.18393C15.1474 1.19884 15.2832 1.2413 15.4069 1.30886C15.5305 1.37643 15.6397 1.46778 15.7279 1.57765C15.8259 1.68762 15.9 1.81664 15.9458 1.95662C15.9916 2.09659 16.008 2.24451 15.9939 2.39111C15.9798 2.53771 15.9357 2.67982 15.8641 2.80855C15.7926 2.93728 15.6952 3.04985 15.5782 3.1392L9.16084 8.30516C8.96288 8.43941 8.72563 8.50343 8.48701 8.48699V8.48699Z" fill="#C4C4C4"/>
</svg>
