<svg width="46" height="46" viewBox="0 0 46 46" fill="none" xmlns="http://www.w3.org/2000/svg">
<path d="M44.6523 4.79085H1.34766C0.603287 4.79085 0 5.39413 0 6.1385V43.2787C0 44.0231 0.603287 44.6264 1.34766 44.6264H44.6523C45.3967 44.6264 46 44.0231 46 43.2787V6.1385C46 5.39413 45.3967 4.79085 44.6523 4.79085Z" fill="#E0F4FF"/>
<path d="M44.6523 4.79085H23V44.6264H44.6523C45.3967 44.6264 46 44.0231 46 43.2787V6.1385C46 5.39413 45.3967 4.79085 44.6523 4.79085Z" fill="#BBDCFF"/>
<path d="M39.2618 30.4841H32.1262C31.3822 30.4841 30.7786 31.0873 30.7786 31.8317V37.8881C30.7786 38.6321 31.3822 39.2357 32.1262 39.2357H39.2618C40.0061 39.2357 40.6094 38.6321 40.6094 37.8881V31.8317C40.6094 31.0873 40.0061 30.4841 39.2618 30.4841Z" fill="#17333F"/>
<path d="M39.2618 19.0367H32.1262C31.3822 19.0367 30.7786 19.64 30.7786 20.3844V26.4411C30.7786 27.1851 31.3822 27.7887 32.1262 27.7887H39.2618C40.0061 27.7887 40.6094 27.1851 40.6094 26.4411V20.3844C40.6094 19.64 40.0061 19.0367 39.2618 19.0367Z" fill="#17333F"/>
<path d="M26.5677 30.4841H19.4321C18.6881 30.4841 18.0845 31.0873 18.0845 31.8317V37.8881C18.0845 38.6321 18.6881 39.2357 19.4321 39.2357H26.5677C27.3117 39.2357 27.9153 38.6321 27.9153 37.8881V31.8317C27.9153 31.0873 27.3117 30.4841 26.5677 30.4841Z" fill="#264653"/>
<path d="M26.5678 39.2357C27.3118 39.2357 27.9154 38.6321 27.9154 37.8881V31.8317C27.9154 31.0873 27.3118 30.4841 26.5678 30.4841H23V39.2357H26.5678Z" fill="#17333F"/>
<path d="M26.5677 19.0367H19.4321C18.6881 19.0367 18.0845 19.64 18.0845 20.3844V26.4411C18.0845 27.1851 18.6881 27.7887 19.4321 27.7887H26.5677C27.3117 27.7887 27.9153 27.1851 27.9153 26.4411V20.3844C27.9153 19.64 27.3117 19.0367 26.5677 19.0367Z" fill="#264653"/>
<path d="M27.9154 26.4411V20.3844C27.9154 19.64 27.3118 19.0367 26.5678 19.0367H23V27.7887H26.5678C27.3118 27.7887 27.9154 27.1855 27.9154 26.4411Z" fill="#17333F"/>
<path d="M13.8738 19.0367H6.73828C5.99391 19.0367 5.39062 19.64 5.39062 20.3844V26.4411C5.39062 27.1851 5.99391 27.7887 6.73828 27.7887H13.8738C14.6179 27.7887 15.2215 27.1851 15.2215 26.4411V20.3844C15.2215 19.64 14.6179 19.0367 13.8738 19.0367Z" fill="#264653"/>
<path d="M13.8738 30.4841H6.73828C5.99391 30.4841 5.39062 31.0873 5.39062 31.8317V37.8881C5.39062 38.6321 5.99391 39.2357 6.73828 39.2357H13.8738C14.6179 39.2357 15.2215 38.6321 15.2215 37.8881V31.8317C15.2215 31.0873 14.6179 30.4841 13.8738 30.4841Z" fill="#264653"/>
<path d="M44.6523 4.79085H1.34766C0.603287 4.79085 0 5.39413 0 6.1385V14.9937H46V6.1385C46 5.39413 45.3967 4.79085 44.6523 4.79085Z" fill="#264653"/>
<path d="M46 6.1385C46 5.39413 45.3967 4.79085 44.6523 4.79085H23V14.9937H46V6.1385Z" fill="#17333F"/>
<path d="M35.1289 8.23439C34.3845 8.23439 33.7812 7.63075 33.7812 6.88673V2.69531C33.7812 1.95094 34.3845 1.34766 35.1289 1.34766C35.8733 1.34766 36.4766 1.95094 36.4766 2.69531V6.88673C36.4766 7.63075 35.8733 8.23439 35.1289 8.23439Z" fill="#2C3B73"/>
<path d="M23 8.23439C22.2556 8.23439 21.6523 7.63075 21.6523 6.88673V2.69531C21.6523 1.95094 22.2556 1.34766 23 1.34766C23.7444 1.34766 24.3477 1.95094 24.3477 2.69531V6.88673C24.3477 7.63075 23.7444 8.23439 23 8.23439Z" fill="#47568C"/>
<path d="M24.3477 6.88673V2.69531C24.3477 1.95094 23.7444 1.34766 23 1.34766V8.23439C23.7444 8.23439 24.3477 7.63075 24.3477 6.88673Z" fill="#2C3B73"/>
<path d="M10.8711 8.23439C10.1267 8.23439 9.52344 7.63075 9.52344 6.88673V2.69531C9.52344 1.95094 10.1267 1.34766 10.8711 1.34766C11.6155 1.34766 12.2188 1.95094 12.2188 2.69531V6.88673C12.2188 7.63075 11.6155 8.23439 10.8711 8.23439Z" fill="#47568C"/>
</svg>
