<svg width="15" height="17" viewBox="0 0 15 17" fill="none" xmlns="http://www.w3.org/2000/svg">
<path d="M12.5 1.66667H11.6667V0.833333C11.6667 0.61232 11.5789 0.400358 11.4226 0.244078C11.2663 0.0877973 11.0543 0 10.8333 0C10.6123 0 10.4004 0.0877973 10.2441 0.244078C10.0878 0.400358 10 0.61232 10 0.833333V1.66667H5V0.833333C5 0.61232 4.9122 0.400358 4.75592 0.244078C4.59964 0.0877973 4.38768 0 4.16667 0C3.94565 0 3.73369 0.0877973 3.57741 0.244078C3.42113 0.400358 3.33333 0.61232 3.33333 0.833333V1.66667H2.5C1.83696 1.66667 1.20107 1.93006 0.732233 2.3989C0.263392 2.86774 0 3.50363 0 4.16667V14.1667C0 14.8297 0.263392 15.4656 0.732233 15.9344C1.20107 16.4033 1.83696 16.6667 2.5 16.6667H12.5C13.163 16.6667 13.7989 16.4033 14.2678 15.9344C14.7366 15.4656 15 14.8297 15 14.1667V4.16667C15 3.50363 14.7366 2.86774 14.2678 2.3989C13.7989 1.93006 13.163 1.66667 12.5 1.66667V1.66667ZM2.5 3.33333H3.33333V4.16667C3.33333 4.38768 3.42113 4.59964 3.57741 4.75592C3.73369 4.9122 3.94565 5 4.16667 5C4.38768 5 4.59964 4.9122 4.75592 4.75592C4.9122 4.59964 5 4.38768 5 4.16667V3.33333H10V4.16667C10 4.38768 10.0878 4.59964 10.2441 4.75592C10.4004 4.9122 10.6123 5 10.8333 5C11.0543 5 11.2663 4.9122 11.4226 4.75592C11.5789 4.59964 11.6667 4.38768 11.6667 4.16667V3.33333H12.5C12.721 3.33333 12.933 3.42113 13.0893 3.57741C13.2455 3.73369 13.3333 3.94565 13.3333 4.16667V7.5H1.66667V4.16667C1.66667 3.94565 1.75446 3.73369 1.91074 3.57741C2.06702 3.42113 2.27899 3.33333 2.5 3.33333V3.33333ZM12.5 15H2.5C2.27899 15 2.06702 14.9122 1.91074 14.7559C1.75446 14.5996 1.66667 14.3877 1.66667 14.1667V9.16667H13.3333V14.1667C13.3333 14.3877 13.2455 14.5996 13.0893 14.7559C12.933 14.9122 12.721 15 12.5 15Z" fill="#C4C4C4"/>
<path d="M4.16683 12.5C4.62707 12.5 5.00016 12.1269 5.00016 11.6667C5.00016 11.2064 4.62707 10.8333 4.16683 10.8333C3.70659 10.8333 3.3335 11.2064 3.3335 11.6667C3.3335 12.1269 3.70659 12.5 4.16683 12.5Z" fill="#C4C4C4"/>
<path d="M10.8332 10.8333H7.49984C7.27882 10.8333 7.06686 10.9211 6.91058 11.0774C6.7543 11.2337 6.6665 11.4456 6.6665 11.6667C6.6665 11.8877 6.7543 12.0996 6.91058 12.2559C7.06686 12.4122 7.27882 12.5 7.49984 12.5H10.8332C11.0542 12.5 11.2661 12.4122 11.4224 12.2559C11.5787 12.0996 11.6665 11.8877 11.6665 11.6667C11.6665 11.4456 11.5787 11.2337 11.4224 11.0774C11.2661 10.9211 11.0542 10.8333 10.8332 10.8333Z" fill="#C4C4C4"/>
</svg>
