<svg width="65" height="65" viewBox="0 0 65 65" fill="none" xmlns="http://www.w3.org/2000/svg">
<path d="M57.2559 59.0332V65H34.4043L32.5 60.9375L30.5957 65H7.74414V59.0332C7.74414 50.1973 14.5236 42.8467 23.1307 41.9708L32.5 49.5117L41.8311 41.9708C50.4764 42.8467 57.2559 50.159 57.2559 59.0332Z" fill="#2A9D8F"/>
<path d="M57.2559 59.0332V65H34.4043L32.5 60.9375V49.5117L41.8311 41.9708C50.4764 42.8467 57.2559 50.159 57.2559 59.0332Z" fill="#1E8E81"/>
<path d="M40.6886 48.674L34.4043 65H30.5957L23.9688 48.0264L32.5 48.3691L40.6886 48.674Z" fill="#CCE6FF"/>
<path d="M40.6886 48.674L34.4043 65H32.5V48.3691L40.6886 48.674Z" fill="#B3D9FF"/>
<path d="M42.0215 53.3203H49.6387V57.1289H42.0215V53.3203Z" fill="#17333F"/>
<path d="M40.6887 48.674C38.9747 51.5304 35.8517 53.3203 32.5001 53.3203C28.8437 53.3203 25.5685 51.3016 23.9689 48.0264C23.0167 46.1221 22.7501 44.0273 23.1309 41.9708C23.7023 41.9326 24.2737 41.8945 24.8829 41.8945H26.7872V39.3429H38.213V41.8945H40.1173C40.6887 41.8945 41.2599 41.9326 41.8312 41.9708C42.2882 44.2939 41.9072 46.6172 40.6887 48.674Z" fill="#FFD5CC"/>
<path d="M41.8311 41.9708C42.2881 44.2941 41.9071 46.6172 40.6885 48.674C38.9746 51.5304 35.8516 53.3203 32.5 53.3203V39.3429H38.2129V41.8945H40.1172C40.6886 41.8945 41.2598 41.9326 41.8311 41.9708Z" fill="#FFAA99"/>
<path d="M49.6387 19.043C49.6387 21.1377 47.9248 22.8516 45.8301 22.8516V26.5079L32.5 34.2773L19.1699 26.5079V22.8516C17.0752 22.8516 15.3613 21.1377 15.3613 19.043C15.3613 16.9482 17.0752 15.2344 19.1699 15.2344L22.9785 7.61719H42.0215L45.8301 15.2344C47.9248 15.2344 49.6387 16.9482 49.6387 19.043Z" fill="#FFD5CC"/>
<path d="M49.6387 19.043C49.6387 21.1377 47.9248 22.8516 45.8301 22.8516V26.5079L32.5 34.2773V7.61719H42.0215L45.8301 15.2344C47.9248 15.2344 49.6387 16.9482 49.6387 19.043Z" fill="#FFAA99"/>
<path d="M39.2794 25.0607C37.7939 24.0703 35.9279 22.8516 32.5 22.8516C29.0721 22.8516 27.2061 24.0703 25.7206 25.0607C24.2354 26.0509 22.8263 27.0031 19.1699 26.5079V28.5645C19.1699 35.8768 25.1113 41.8945 32.5 41.8945C39.8887 41.8945 45.8301 35.8768 45.8301 28.5645V26.5079C42.1737 27.0031 40.8027 26.0887 39.2794 25.0607Z" fill="#264653"/>
<path d="M45.8301 26.5079V28.5645C45.8301 35.8768 39.8887 41.8945 32.5 41.8945V22.8516C35.9279 22.8516 37.7939 24.0703 39.2794 25.0607C40.8027 26.0887 42.1737 27.0031 45.8301 26.5079Z" fill="#17333F"/>
<path d="M19.1699 0H45.8301V15.2344H19.1699V0Z" fill="#2A9D8F"/>
<path d="M32.5 0H45.8301V15.2344H32.5V0Z" fill="#1E8E81"/>
</svg>
