<svg width="15" height="12" viewBox="0 0 15 12" fill="none" xmlns="http://www.w3.org/2000/svg">
<path d="M12.75 0H2.25C1.65326 0 1.08097 0.237053 0.65901 0.65901C0.237053 1.08097 0 1.65326 0 2.25V9.75C0 10.3467 0.237053 10.919 0.65901 11.341C1.08097 11.7629 1.65326 12 2.25 12H12.75C13.3467 12 13.919 11.7629 14.341 11.341C14.7629 10.919 15 10.3467 15 9.75V2.25C15 1.65326 14.7629 1.08097 14.341 0.65901C13.919 0.237053 13.3467 0 12.75 0V0ZM12.2475 1.5L7.5 5.0625L2.7525 1.5H12.2475ZM12.75 10.5H2.25C2.05109 10.5 1.86032 10.421 1.71967 10.2803C1.57902 10.1397 1.5 9.94891 1.5 9.75V2.4375L7.05 6.6C7.17982 6.69737 7.33772 6.75 7.5 6.75C7.66228 6.75 7.82018 6.69737 7.95 6.6L13.5 2.4375V9.75C13.5 9.94891 13.421 10.1397 13.2803 10.2803C13.1397 10.421 12.9489 10.5 12.75 10.5Z" fill="#C4C4C4"/>
</svg>
