<svg width="16" height="11" viewBox="0 0 16 11" fill="none" xmlns="http://www.w3.org/2000/svg">
<path d="M15.5629 5.03937C15.0831 4.2072 12.4441 0.0313607 7.96091 0.166307C3.81506 0.271265 1.41601 3.91482 0.763771 5.03937C0.697971 5.15334 0.66333 5.28262 0.66333 5.41422C0.66333 5.54582 0.697971 5.6751 0.763771 5.78907C1.23608 6.60625 3.76258 10.6621 8.17832 10.6621H8.36575C12.5116 10.5572 14.9181 6.91363 15.5629 5.78907C15.6287 5.6751 15.6633 5.54582 15.6633 5.41422C15.6633 5.28262 15.6287 5.15334 15.5629 5.03937V5.03937ZM8.32826 9.16273C5.09705 9.2377 2.99039 6.4713 2.33065 5.41422C3.08035 4.2072 5.03707 1.74068 8.03588 1.66571C11.2521 1.58324 13.3663 4.35714 14.0335 5.41422C13.2613 6.62124 11.3271 9.08776 8.32826 9.16273V9.16273Z" fill="#C4C4C4"/>
<path d="M8.16327 2.79026C7.6443 2.79026 7.13698 2.94415 6.70547 3.23248C6.27397 3.5208 5.93765 3.93061 5.73904 4.41007C5.54044 4.88954 5.48848 5.41713 5.58973 5.92613C5.69097 6.43512 5.94088 6.90267 6.30785 7.26964C6.67481 7.6366 7.14236 7.88651 7.65136 7.98776C8.16035 8.089 8.68794 8.03704 9.16741 7.83844C9.64688 7.63984 10.0567 7.30352 10.345 6.87201C10.6333 6.4405 10.7872 5.93319 10.7872 5.41422C10.7872 4.7183 10.5108 4.05089 10.0187 3.5588C9.5266 3.06671 8.85918 2.79026 8.16327 2.79026V2.79026ZM8.16327 6.53877C7.94085 6.53877 7.72343 6.47282 7.5385 6.34925C7.35357 6.22568 7.20943 6.05005 7.12431 5.84457C7.0392 5.63908 7.01693 5.41297 7.06032 5.19483C7.10371 4.97669 7.21081 4.77631 7.36809 4.61904C7.52536 4.46177 7.72573 4.35466 7.94388 4.31127C8.16202 4.26788 8.38813 4.29015 8.59361 4.37527C8.7991 4.46038 8.97473 4.60452 9.0983 4.78945C9.22187 4.97438 9.28782 5.1918 9.28782 5.41422C9.28782 5.71247 9.16934 5.9985 8.95844 6.2094C8.74755 6.42029 8.46152 6.53877 8.16327 6.53877Z" fill="#C4C4C4"/>
</svg>
