<svg width="16" height="15" viewBox="0 0 16 15" fill="none" xmlns="http://www.w3.org/2000/svg">
<path d="M3.02847 1.21616C2.95864 1.14633 2.87574 1.09094 2.78451 1.05315C2.69327 1.01536 2.59549 0.995911 2.49673 0.995911C2.39798 0.995911 2.3002 1.01536 2.20896 1.05315C2.11773 1.09094 2.03483 1.14633 1.965 1.21616C1.82398 1.35719 1.74475 1.54846 1.74475 1.74789C1.74475 1.94733 1.82398 2.1386 1.965 2.27963L6.18142 6.49604C5.91465 6.99229 5.81488 7.56128 5.89689 8.11868C5.9789 8.67609 6.23832 9.19223 6.63671 9.59062C7.0351 9.98901 7.55124 10.2484 8.10865 10.3304C8.66605 10.4124 9.23504 10.3127 9.73129 10.0459L13.9477 14.2623C14.0173 14.3325 14.1002 14.3882 14.1914 14.4263C14.2827 14.4643 14.3806 14.4839 14.4794 14.4839C14.5783 14.4839 14.6762 14.4643 14.7675 14.4263C14.8587 14.3882 14.9415 14.3325 15.0112 14.2623C15.0814 14.1927 15.1371 14.1099 15.1751 14.0186C15.2131 13.9273 15.2327 13.8295 15.2327 13.7306C15.2327 13.6317 15.2131 13.5338 15.1751 13.4426C15.1371 13.3513 15.0814 13.2685 15.0112 13.1989L3.02847 1.21616ZM8.48809 8.86262C8.19015 8.86262 7.90441 8.74427 7.69374 8.53359C7.48306 8.32292 7.36471 8.03718 7.36471 7.73924V7.68682L8.53302 8.85513L8.48809 8.86262Z" fill="#C4C4C4"/>
<path d="M8.6529 11.4838C5.43255 11.5587 3.3206 8.79522 2.66155 7.73924C3.13072 6.99084 3.69458 6.30616 4.33913 5.70219L3.2457 4.64621C2.40042 5.44266 1.67628 6.35856 1.09631 7.36479C1.03058 7.47864 0.995972 7.60778 0.995972 7.73924C0.995972 7.87071 1.03058 7.99985 1.09631 8.1137C1.56813 8.93003 4.09198 12.9817 8.50312 12.9817H8.69035C9.51981 12.9571 10.3385 12.7872 11.1094 12.4799L9.92606 11.2966C9.50994 11.4061 9.08292 11.4689 8.6529 11.4838Z" fill="#C4C4C4"/>
<path d="M15.88 7.36478C15.4007 6.53348 12.757 2.362 8.28595 2.49681C7.45649 2.52141 6.63776 2.69124 5.86694 2.99858L7.05024 4.18188C7.46636 4.07241 7.89338 4.00961 8.3234 3.99465C11.5363 3.91227 13.6482 6.68327 14.3147 7.73924C13.834 8.48988 13.2575 9.17466 12.5997 9.7763L13.7306 10.8323C14.5865 10.0379 15.3208 9.12191 15.9099 8.1137C15.9712 7.99724 16.0007 7.8667 15.9954 7.73522C15.9901 7.60375 15.9503 7.47598 15.88 7.36478V7.36478Z" fill="#C4C4C4"/>
</svg>
