<svg width="15" height="17" viewBox="0 0 15 17" fill="none" xmlns="http://www.w3.org/2000/svg">
<path d="M14.5165 6.81732L8.09159 0.250699C8.01412 0.172592 7.92195 0.110597 7.8204 0.0682903C7.71885 0.0259834 7.60993 0.00420165 7.49992 0.00420165C7.38992 0.00420165 7.28099 0.0259834 7.17945 0.0682903C7.0779 0.110597 6.98573 0.172592 6.90826 0.250699L0.483304 6.82565C0.327836 6.98238 0.205052 7.16842 0.12208 7.37299C0.0391084 7.57756 -0.00239687 7.79657 -2.59341e-05 8.01731V15.0006C-0.000671616 15.4272 0.162284 15.8378 0.455283 16.1478C0.748282 16.4579 1.14902 16.6438 1.57496 16.6673H13.4249C13.8508 16.6438 14.2516 16.4579 14.5446 16.1478C14.8376 15.8378 15.0005 15.4272 14.9999 15.0006V8.01731C15.0005 7.56976 14.8272 7.13947 14.5165 6.81732V6.81732ZM5.83327 15.0006V10.0006H9.16658V15.0006H5.83327ZM13.3332 15.0006H10.8332V9.16731C10.8332 8.94629 10.7454 8.73433 10.5892 8.57805C10.4329 8.42178 10.2209 8.33398 9.99991 8.33398H4.99994C4.77893 8.33398 4.56697 8.42178 4.41069 8.57805C4.25441 8.73433 4.16661 8.94629 4.16661 9.16731V15.0006H1.66663V7.98398L7.49992 2.02569L13.3332 8.01731V15.0006Z" fill="#C4C4C4"/>
</svg>
