<svg width="38" height="38" viewBox="0 0 38 38" fill="none" xmlns="http://www.w3.org/2000/svg">
<path d="M19 38C8.52298 38 0 29.477 0 19C0 8.52298 8.52298 0 19 0C29.477 0 38 8.52298 38 19C38 29.477 29.477 38 19 38Z" fill="#264653"/>
<path d="M27.3125 17.4168H20.5832V10.6875C20.5832 9.8134 19.8741 9.10426 19 9.10426C18.1259 9.10426 17.4167 9.8134 17.4167 10.6875V17.4168H10.6875C9.81339 17.4168 9.10425 18.1259 9.10425 19C9.10425 19.8741 9.81339 20.5832 10.6875 20.5832H17.4167V27.3125C17.4167 28.1866 18.1259 28.8957 19 28.8957C19.8741 28.8957 20.5832 28.1866 20.5832 27.3125V20.5832H27.3125C28.1866 20.5832 28.8957 19.8741 28.8957 19C28.8957 18.1259 28.1866 17.4168 27.3125 17.4168Z" fill="#FAFAFA"/>
</svg>
