<svg width="16" height="20" viewBox="0 0 16 20" fill="none" xmlns="http://www.w3.org/2000/svg">
<path d="M13 6H6V4C6 3.46957 6.21071 2.96086 6.58579 2.58579C6.96086 2.21071 7.46957 2 8 2C8.53043 2 9.03914 2.21071 9.41421 2.58579C9.78929 2.96086 10 3.46957 10 4C10 4.26522 10.1054 4.51957 10.2929 4.70711C10.4804 4.89464 10.7348 5 11 5C11.2652 5 11.5196 4.89464 11.7071 4.70711C11.8946 4.51957 12 4.26522 12 4C12 2.93913 11.5786 1.92172 10.8284 1.17157C10.0783 0.421427 9.06087 0 8 0C6.93913 0 5.92172 0.421427 5.17157 1.17157C4.42143 1.92172 4 2.93913 4 4V6H3C2.20435 6 1.44129 6.31607 0.87868 6.87868C0.316071 7.44129 0 8.20435 0 9V17C0 17.7956 0.316071 18.5587 0.87868 19.1213C1.44129 19.6839 2.20435 20 3 20H13C13.7956 20 14.5587 19.6839 15.1213 19.1213C15.6839 18.5587 16 17.7956 16 17V9C16 8.20435 15.6839 7.44129 15.1213 6.87868C14.5587 6.31607 13.7956 6 13 6ZM14 17C14 17.2652 13.8946 17.5196 13.7071 17.7071C13.5196 17.8946 13.2652 18 13 18H3C2.73478 18 2.48043 17.8946 2.29289 17.7071C2.10536 17.5196 2 17.2652 2 17V9C2 8.73478 2.10536 8.48043 2.29289 8.29289C2.48043 8.10536 2.73478 8 3 8H13C13.2652 8 13.5196 8.10536 13.7071 8.29289C13.8946 8.48043 14 8.73478 14 9V17Z" fill="#C4C4C4"/>
<path d="M8 10C7.40666 10 6.82664 10.1759 6.33329 10.5056C5.83994 10.8352 5.45543 11.3038 5.22836 11.8519C5.0013 12.4001 4.94189 13.0033 5.05765 13.5853C5.1734 14.1672 5.45912 14.7018 5.87868 15.1213C6.29824 15.5409 6.83279 15.8266 7.41473 15.9424C7.99667 16.0581 8.59987 15.9987 9.14805 15.7716C9.69623 15.5446 10.1648 15.1601 10.4944 14.6667C10.8241 14.1734 11 13.5933 11 13C11 12.2044 10.6839 11.4413 10.1213 10.8787C9.55871 10.3161 8.79565 10 8 10ZM8 14C7.80222 14 7.60888 13.9414 7.44443 13.8315C7.27998 13.7216 7.15181 13.5654 7.07612 13.3827C7.00043 13.2 6.98063 12.9989 7.01922 12.8049C7.0578 12.6109 7.15304 12.4327 7.2929 12.2929C7.43275 12.153 7.61093 12.0578 7.80491 12.0192C7.99889 11.9806 8.19996 12.0004 8.38269 12.0761C8.56541 12.1518 8.72159 12.28 8.83147 12.4444C8.94135 12.6089 9 12.8022 9 13C9 13.2652 8.89464 13.5196 8.70711 13.7071C8.51957 13.8946 8.26522 14 8 14Z" fill="#C4C4C4"/>
</svg>
