<svg width="48" height="48" viewBox="0 0 48 48" fill="none" xmlns="http://www.w3.org/2000/svg">
<g clip-path="url(#clip0)">
<path d="M32.0983 25.4392C29.9384 22.0697 26.2598 20.0577 22.2579 20.0577C18.2559 20.0577 14.5773 22.0697 12.4178 25.4392L7.21319 33.5585C6.34967 34.9054 5.95123 36.4618 6.06073 38.0581C6.17022 39.6548 6.77777 41.1416 7.81744 42.3589C8.85785 43.5751 10.2326 44.4064 11.793 44.7631C13.3535 45.1198 14.9531 44.9674 16.4186 44.3233L16.5168 44.2797C20.2045 42.6911 24.4185 42.7057 28.0967 44.3233C29.0456 44.7404 30.0508 44.9513 31.0652 44.9513C31.6168 44.9513 32.1716 44.8887 32.7212 44.7634C34.2817 44.4071 35.6564 43.5758 36.6972 42.3593C37.7372 41.1431 38.3452 39.6559 38.455 38.0588C38.5649 36.4618 38.1664 34.9058 37.3029 33.5581L32.0983 25.4392Z" fill="#264653"/>
<path d="M8.61515 25.4286C10.1635 24.8339 11.3398 23.5862 11.9272 21.9152C12.4864 20.3251 12.4406 18.5299 11.7979 16.86C11.1548 15.1912 9.98515 13.8289 8.50419 13.0236C6.94853 12.178 5.23942 12.0403 3.69364 12.6361C0.58378 13.8318 -0.843345 17.6748 0.512735 21.2047C1.59599 24.0143 4.12248 25.7878 6.6768 25.7878C7.32902 25.7878 7.98307 25.6721 8.61515 25.4286Z" fill="#264653"/>
<path d="M18.7137 19.0675C22.6014 19.0675 25.7644 15.464 25.7644 11.0347C25.7644 6.60425 22.6014 3 18.7137 3C14.8264 3 11.6638 6.60425 11.6638 11.0347C11.6638 15.464 14.8264 19.0675 18.7137 19.0675Z" fill="#264653"/>
<path d="M30.8903 21.041H30.8907C31.4887 21.2395 32.0988 21.3344 32.7064 21.3344C35.5416 21.3344 38.3046 19.2708 39.359 16.0994C39.9661 14.2738 39.9262 12.3435 39.2465 10.6644C38.5354 8.90662 37.2174 7.63074 35.535 7.07154C33.8523 6.51234 32.0325 6.74561 30.4106 7.72779C28.8612 8.66602 27.6739 10.1884 27.0675 12.0139C25.7876 15.865 27.5025 19.9146 30.8903 21.041V21.041Z" fill="#264653"/>
<path d="M45.7382 20.1035L45.7371 20.1024C43.0561 18.122 39.0464 18.9804 36.7983 22.017C34.5523 25.0551 34.9035 29.1394 37.5805 31.1214C38.5568 31.8446 39.7104 32.1903 40.891 32.1903C42.9488 32.1903 45.0896 31.14 46.5208 29.2086C48.7664 26.1706 48.4156 22.0862 45.7382 20.1035V20.1035Z" fill="#264653"/>
</g>
<defs>
<clipPath id="clip0">
<rect width="48" height="48" fill="white"/>
</clipPath>
</defs>
</svg>
