<svg width="15" height="15" viewBox="0 0 15 15" fill="none" xmlns="http://www.w3.org/2000/svg">
<path d="M10.0307 7.94975C9.35575 6.89678 8.2062 6.26804 6.95558 6.26804C5.70497 6.26804 4.55542 6.89678 3.88056 7.94975L2.25412 10.487C1.98427 10.9079 1.85976 11.3943 1.89398 11.8932C1.92819 12.3921 2.11805 12.8568 2.44295 13.2372C2.76808 13.6172 3.19769 13.877 3.68532 13.9885C4.17295 14.0999 4.67283 14.0523 5.13082 13.851L5.16149 13.8374C6.31391 13.341 7.63079 13.3455 8.78023 13.851C9.07675 13.9814 9.39089 14.0473 9.70789 14.0473C9.88024 14.0473 10.0536 14.0277 10.2254 13.9886C10.713 13.8772 11.1426 13.6174 11.4679 13.2373C11.7929 12.8572 11.9829 12.3925 12.0172 11.8934C12.0515 11.3943 11.927 10.9081 11.6572 10.4869L10.0307 7.94975Z" fill="#C4C4C4"/>
<path d="M2.69223 7.94643C3.17609 7.76058 3.54368 7.37068 3.72724 6.84849C3.90199 6.35158 3.88768 5.79059 3.68684 5.26874C3.48588 4.74724 3.12036 4.32152 2.65756 4.06986C2.17141 3.80562 1.63732 3.76259 1.15426 3.94878C0.182431 4.32243 -0.263545 5.52337 0.16023 6.62647C0.498746 7.50446 1.28827 8.0587 2.0865 8.0587C2.29032 8.0587 2.49471 8.02253 2.69223 7.94643Z" fill="#C4C4C4"/>
<path d="M5.848 5.95859C7.0629 5.95859 8.05133 4.8325 8.05133 3.44833C8.05133 2.06383 7.0629 0.9375 5.848 0.9375C4.63321 0.9375 3.6449 2.06383 3.6449 3.44833C3.6449 4.8325 4.63321 5.95859 5.848 5.95859Z" fill="#C4C4C4"/>
<path d="M9.65325 6.57532H9.65336C9.84024 6.63735 10.0309 6.66699 10.2208 6.66699C11.1068 6.66699 11.9702 6.02211 12.2997 5.03105C12.4894 4.46057 12.477 3.85735 12.2646 3.33264C12.0423 2.78332 11.6304 2.38461 11.1047 2.20986C10.5788 2.03511 10.0102 2.10801 9.50333 2.41494C9.01913 2.70813 8.64811 3.18386 8.4586 3.75435C8.05863 4.95781 8.59455 6.2233 9.65325 6.57532V6.57532Z" fill="#C4C4C4"/>
<path d="M14.2932 6.28235L14.2928 6.28201C13.455 5.66311 12.202 5.93136 11.4994 6.8803C10.7976 7.82971 10.9073 9.10607 11.7439 9.72542C12.049 9.95144 12.4095 10.0595 12.7784 10.0595C13.4215 10.0595 14.0905 9.73126 14.5377 9.1277C15.2395 8.17829 15.1298 6.90193 14.2932 6.28235V6.28235Z" fill="#C4C4C4"/>
</svg>
