<svg width="15" height="15" viewBox="0 0 15 15" fill="none" xmlns="http://www.w3.org/2000/svg">
<path d="M11.5269 14.97C8.47102 14.9661 5.5414 13.7504 3.38054 11.5895C1.21968 9.42863 0.00396102 6.499 0 3.44308C0 2.52991 0.362756 1.65414 1.00846 1.00844C1.65417 0.362727 2.52994 -2.87717e-05 3.44311 -2.87717e-05C3.63648 -0.00150168 3.82953 0.0160478 4.01946 0.0523664C4.20308 0.0795374 4.38358 0.124664 4.55838 0.187097C4.68132 0.230233 4.79087 0.304712 4.8762 0.403169C4.96153 0.501626 5.01968 0.620651 5.04491 0.748474L6.07036 5.23949C6.098 5.36139 6.09467 5.48828 6.06068 5.60857C6.02668 5.72885 5.9631 5.83871 5.87575 5.92811C5.77844 6.0329 5.77096 6.04039 4.8503 6.51943C5.58757 8.13684 6.88114 9.43572 8.49551 10.1796C8.98203 9.25147 8.98952 9.24398 9.09431 9.14668C9.18371 9.05932 9.29357 8.99574 9.41386 8.96175C9.53414 8.92775 9.66103 8.92443 9.78293 8.95207L14.2739 9.97751C14.3977 10.0062 14.5121 10.0659 14.6063 10.1511C14.7006 10.2362 14.7717 10.3439 14.8129 10.464C14.876 10.6417 14.9236 10.8245 14.9551 11.0104C14.9852 11.1986 15.0002 11.3888 15 11.5793C14.9862 12.4886 14.6132 13.3555 13.9626 13.9907C13.3119 14.626 12.4363 14.978 11.5269 14.97V14.97ZM3.44311 1.49698C2.92758 1.49895 2.43372 1.70462 2.06919 2.06916C1.70465 2.4337 1.49898 2.92755 1.49701 3.44308C1.49899 6.10258 2.55635 8.65258 4.4369 10.5331C6.31744 12.4137 8.86745 13.471 11.5269 13.473C12.0425 13.4711 12.5363 13.2654 12.9009 12.9008C13.2654 12.5363 13.4711 12.0424 13.4731 11.5269V11.2799L10 10.479L9.78293 10.8907C9.44611 11.5419 9.1991 12.0134 8.57036 11.759C7.33 11.315 6.20411 10.6003 5.2745 9.6668C4.34489 8.7333 3.6349 7.60444 3.19611 6.36225C2.92665 5.77841 3.43563 5.50895 4.07934 5.17213L4.49102 4.97003L3.69012 1.49698H3.44311Z" fill="#C4C4C4"/>
</svg>
