<?xml version="1.0" encoding="utf-8"?>
<!-- Generator: Adobe Illustrator 17.1.0, SVG Export Plug-In . SVG Version: 6.00 Build 0)  -->
<!DOCTYPE svg PUBLIC "-//W3C//DTD SVG 1.1//EN" "http://www.w3.org/Graphics/SVG/1.1/DTD/svg11.dtd">
<svg version="1.1" id="Layer_1" xmlns="http://www.w3.org/2000/svg" xmlns:xlink="http://www.w3.org/1999/xlink" x="0px" y="0px"
	 viewBox="0 0 100 100" enable-background="new 0 0 100 100" xml:space="preserve">
<circle fill="#2A9D8F" cx="52" cy="50" r="40"/>
<path display="none" fill="#F89621" d="M34.8,36.7l-18.6,9.1V35.2c0,0-12.2,1.2-14.2-13.4h14.6L21,9.9L34.8,36.7z"/>
<circle display="none" fill="#F89621" cx="13.3" cy="48.6" r="2.8"/>
<circle display="none" fill="#FFFFFF" cx="14.6" cy="26.1" r="1.8"/>
<g display="none">
	<defs>
		<circle id="SVGID_1_" cx="52" cy="49.8" r="40"/>
	</defs>
	<clipPath id="SVGID_2_" display="inline">
		<use xlink:href="#SVGID_1_"  overflow="visible"/>
	</clipPath>
	<g display="inline" clip-path="url(#SVGID_2_)">
		<path fill="#F89621" d="M76.3,47.9v38.7h-7.1l-2.8-19.4l-34.8,4.3l-3.2,15h-7.1c0,0,2.8-15-2.8-35.2l17-10.3l59.3,3.2
			C94.8,44.4,88.9,59.4,76.3,47.9z"/>
		<path fill="#F89621" d="M34.8,36.9l-18.6,9.1V35.3c0,0-12.2,1.2-14.2-13.4h14.6L21,10L34.8,36.9z"/>
		<circle fill="#F89621" cx="13.5" cy="48.7" r="2.8"/>
		<circle fill="#FFFFFF" cx="14.6" cy="26.2" r="1.8"/>
	</g>
</g>
<g>
	<defs>
		<circle id="SVGID_3_" cx="52" cy="50" r="40"/>
	</defs>
	<clipPath id="SVGID_4_">
		<use xlink:href="#SVGID_3_"  overflow="visible"/>
	</clipPath>
	<g clip-path="url(#SVGID_4_)">
		<path fill="#EF4447" d="M78,23v50.1c0,0-1.8,5.4-5.6,5.4s-53.5,0-53.5,0s1-7,5.8-8.6c0,0,1.8-4-2-8.4S13,45.4,19,36.4
			c0,0-7.4,0.8-9.8-1.4c-2.4-2.2-2.8-3.6-2.8-3.6v-1.6l2.4-2c0,0,1.4-8,11.2-9.2l0.2-5.8c0,0,9.8,2.8,11.6,15.4c0,0,2,5,4.6,5
			s30.3,10.2,33.1,37.5l1.8-0.4V21.1c0,0,1.4-5,6.8-5s8.6,1.2,8.6,4.6S79.2,23.8,78,23z"/>
		<circle fill="#FFFFFF" cx="16.7" cy="25.3" r="1.5"/>
	</g>
</g>
<g>
	<defs>
		<rect id="SVGID_5_" x="5" y="8.7" width="82.8" height="34.5"/>
	</defs>
	<clipPath id="SVGID_6_">
		<use xlink:href="#SVGID_5_"  overflow="visible"/>
	</clipPath>
	<g clip-path="url(#SVGID_6_)">
		<path fill="#EF4447" d="M78,23v50.1c0,0-1.8,5.4-5.6,5.4s-53.5,0-53.5,0s1-7,5.8-8.6c0,0,1.8-4-2-8.4S13,45.3,19,36.4
			c0,0-7.4,0.8-9.8-1.4s-2.8-3.6-2.8-3.6v-1.6l2.4-2c0,0,1.4-8,11.2-9.2l0.2-5.8c0,0,9.8,2.8,11.6,15.4c0,0,2,5,4.6,5
			s30.3,10.2,33.1,37.5l1.8-0.4V21c0,0,1.4-5,6.8-5c5.4,0,8.6,1.2,8.6,4.6S79.2,23.8,78,23z"/>
		<circle fill="#FFFFFF" cx="16.7" cy="25.3" r="1.5"/>
	</g>
</g>
</svg>
