<?xml version="1.0" encoding="utf-8"?>
<!-- Generator: Adobe Illustrator 17.1.0, SVG Export Plug-In . SVG Version: 6.00 Build 0)  -->
<!DOCTYPE svg PUBLIC "-//W3C//DTD SVG 1.1//EN" "http://www.w3.org/Graphics/SVG/1.1/DTD/svg11.dtd">
<svg version="1.1" id="Layer_1" xmlns="http://www.w3.org/2000/svg" xmlns:xlink="http://www.w3.org/1999/xlink" x="0px" y="0px"
	 viewBox="0 0 100 100" enable-background="new 0 0 100 100" xml:space="preserve">
<circle fill="#264653" cx="51.6" cy="51.8" r="40"/>
<path display="none" fill="#F89621" d="M34.8,36.7l-18.6,9.1V35.2c0,0-12.2,1.2-14.2-13.4h14.6L21,9.9L34.8,36.7z"/>
<circle display="none" fill="#F89621" cx="13.3" cy="48.6" r="2.8"/>
<circle display="none" fill="#FFFFFF" cx="14.6" cy="26.1" r="1.8"/>
<g display="none">
	<defs>
		<circle id="SVGID_1_" cx="52" cy="49.8" r="40"/>
	</defs>
	<clipPath id="SVGID_2_" display="inline">
		<use xlink:href="#SVGID_1_"  overflow="visible"/>
	</clipPath>
	<g display="inline" clip-path="url(#SVGID_2_)">
		<path fill="#F89621" d="M76.3,47.9v38.7h-7.1l-2.8-19.4l-34.8,4.3l-3.2,15h-7.1c0,0,2.8-15-2.8-35.2l17-10.3l59.3,3.2
			C94.8,44.4,88.9,59.4,76.3,47.9z"/>
		<path fill="#F89621" d="M34.8,36.9l-18.6,9.1V35.3c0,0-12.2,1.2-14.2-13.4h14.6L21,10L34.8,36.9z"/>
		<circle fill="#F89621" cx="13.5" cy="48.7" r="2.8"/>
		<circle fill="#FFFFFF" cx="14.6" cy="26.2" r="1.8"/>
	</g>
</g>
<g display="none">
	<defs>
		<circle id="SVGID_3_" cx="52" cy="50" r="40"/>
	</defs>
	<clipPath id="SVGID_4_" display="inline">
		<use xlink:href="#SVGID_3_"  overflow="visible"/>
	</clipPath>
	<g display="inline" clip-path="url(#SVGID_4_)">
		<path fill="#EF4447" d="M78,23v50.1c0,0-1.8,5.4-5.6,5.4s-53.5,0-53.5,0s1-7,5.8-8.6c0,0,1.8-4-2-8.4S13,45.4,19,36.4
			c0,0-7.4,0.8-9.8-1.4c-2.4-2.2-2.8-3.6-2.8-3.6v-1.6l2.4-2c0,0,1.4-8,11.2-9.2l0.2-5.8c0,0,9.8,2.8,11.6,15.4c0,0,2,5,4.6,5
			s30.3,10.2,33.1,37.5l1.8-0.4V21.1c0,0,1.4-5,6.8-5s8.6,1.2,8.6,4.6S79.2,23.8,78,23z"/>
		<circle fill="#FFFFFF" cx="16.7" cy="25.3" r="1.5"/>
	</g>
</g>
<g display="none">
	<defs>
		<rect id="SVGID_5_" x="5" y="8.7" width="82.8" height="34.5"/>
	</defs>
	<clipPath id="SVGID_6_" display="inline">
		<use xlink:href="#SVGID_5_"  overflow="visible"/>
	</clipPath>
	<g display="inline" clip-path="url(#SVGID_6_)">
		<path fill="#EF4447" d="M78,23v50.1c0,0-1.8,5.4-5.6,5.4s-53.5,0-53.5,0s1-7,5.8-8.6c0,0,1.8-4-2-8.4S13,45.3,19,36.4
			c0,0-7.4,0.8-9.8-1.4s-2.8-3.6-2.8-3.6v-1.6l2.4-2c0,0,1.4-8,11.2-9.2l0.2-5.8c0,0,9.8,2.8,11.6,15.4c0,0,2,5,4.6,5
			s30.3,10.2,33.1,37.5l1.8-0.4V21c0,0,1.4-5,6.8-5c5.4,0,8.6,1.2,8.6,4.6S79.2,23.8,78,23z"/>
		<circle fill="#FFFFFF" cx="16.7" cy="25.3" r="1.5"/>
	</g>
</g>
<g display="none">
	<defs>
		<circle id="SVGID_7_" cx="52" cy="56.5" r="40"/>
	</defs>
	<clipPath id="SVGID_8_" display="inline">
		<use xlink:href="#SVGID_7_"  overflow="visible"/>
	</clipPath>
	<g display="inline" clip-path="url(#SVGID_8_)">
		<path fill="#90BE6D" d="M40.4,2.2L2.3,36.4c0,0,4.5,9.8,7.6,10.1c3.1,0.3,14,0,14,0S23,56.7,24.7,59.7c1.7,3.1,9.3,10.4,9.3,10.4
			s-12.6,1.1-12.6,9.7h41.3c0,0,21.3-4.6,14.6-29.1c0,0-5.9-11.2-14.9-14.3H36.5l-7-6.2c0,0,23,6.7,32.6-5.9l-33.7-0.6
			C28.4,23.8,41.8,14.8,40.4,2.2z"/>
		<circle fill="#FFFFFF" cx="15.9" cy="34.7" r="2.2"/>
		<circle fill="#90BE6D" cx="80" cy="43.7" r="6.5"/>
	</g>
</g>
<g display="none">
	<defs>
		<rect id="SVGID_9_" x="-2.6" y="1" width="64.6" height="46.7"/>
	</defs>
	<clipPath id="SVGID_10_" display="inline">
		<use xlink:href="#SVGID_9_"  overflow="visible"/>
	</clipPath>
	<g display="inline" clip-path="url(#SVGID_10_)">
		<path fill="#90BE6D" d="M40.3,2.1L2.1,36.4c0,0,4.5,9.8,7.6,10.1s14,0,14,0s-0.8,10.1,0.8,13.2c1.7,3.1,9.3,10.4,9.3,10.4
			s-12.6,1.1-12.6,9.7h41.3c0,0,21.3-4.6,14.6-29.1c0,0-5.9-11.2-14.9-14.3H36.4l-7-6.2c0,0,23,6.7,32.6-5.9l-33.7-0.6
			C28.2,23.7,41.7,14.7,40.3,2.1z"/>
		<circle fill="#FFFFFF" cx="15.8" cy="34.6" r="2.2"/>
		<circle fill="#90BE6D" cx="79.8" cy="43.6" r="6.5"/>
	</g>
</g>
<g>
	<path fill="#F9C750" d="M59.8,26.8c-3-1.8-6.8-2.6-8-2.8V24c0,0-0.1,0-0.2,0c-0.1,0-0.2,0-0.2,0V24c-1.2,0.2-5,1-8,2.8
		c0,0-30.2-7.9-28.2,27.6c0,0,18.9-17.6,21.4-19.2c0,0-9.3,18.1,2.5,33.5c0,0-9.1,2.3-10.6,10.6h13.6l4-3.6c0,0,3,1,5.2,1.1v0
		c0.1,0,0.1,0,0.2,0c0.1,0,0.1,0,0.2,0v0c2.2-0.1,5.2-1.1,5.2-1.1l4,3.6h13.6C73.1,71,64.1,68.7,64.1,68.7
		c11.8-15.4,2.5-33.5,2.5-33.5C69.1,36.7,88,54.4,88,54.4C90,18.9,59.8,26.8,59.8,26.8z"/>
	<ellipse fill="#F9C750" cx="51.9" cy="13.6" rx="5.9" ry="8.1"/>
</g>
</svg>
